<?xml version="1.0" encoding="utf-8"?>
<!-- Generator: Adobe Illustrator 15.0.0, SVG Export Plug-In . SVG Version: 6.00 Build 0)  -->
<!DOCTYPE svg PUBLIC "-//W3C//DTD SVG 1.1//EN" "http://www.w3.org/Graphics/SVG/1.1/DTD/svg11.dtd">
<svg version="1.1" id="Layer_1" xmlns="http://www.w3.org/2000/svg" xmlns:xlink="http://www.w3.org/1999/xlink" x="0px" y="0px"
	 width="485px" height="112.5px" viewBox="-13 0 485 112.5" enable-background="new -13 0 485 112.5" xml:space="preserve">
<rect x="-13" fill="#3F434C" width="485" height="112.5"/>
<g>
	<path fill="#FFFFFF" stroke="#FFFFFF" stroke-miterlimit="10" d="M44.035,20.763H28.352v25.523H42.79v5.371H28.352v31.065h-5.973
		V15.478h21.656V20.763z"/>
	<path fill="#FFFFFF" stroke="#FFFFFF" stroke-miterlimit="10" d="M71.973,79.311c0,1.006-0.323,1.825-0.969,2.461
		c-0.646,0.637-1.472,0.953-2.477,0.953H55.054c-1.005,0-1.826-0.316-2.461-0.953c-0.636-0.636-0.954-1.455-0.954-2.461V37.997
		c0-1.005,0.318-1.826,0.954-2.461c0.635-0.636,1.456-0.954,2.461-0.954h13.474c1.004,0,1.83,0.318,2.477,0.954
		c0.646,0.635,0.969,1.456,0.969,2.461L71.973,79.311L71.973,79.311z M67.697,78.939V38.366H55.915v40.573H67.697z"/>
	<path fill="#FFFFFF" stroke="#FFFFFF" stroke-miterlimit="10" d="M100.78,82.725h-4.491l-8.952-25.777l0.584-0.861h7.629v-17.72
		H84.569v44.356h-4.276V34.582h16.119c1.004,0,1.825,0.318,2.461,0.954c0.635,0.635,0.954,1.456,0.954,2.461v18.271
		c0,2.318-1.559,3.477-4.676,3.477c-0.308,0-0.759-0.017-1.354-0.047c-0.595-0.029-1.026-0.046-1.292-0.046
		C95.274,67.323,98.032,75.014,100.78,82.725z"/>
	<path fill="#FFFFFF" stroke="#FFFFFF" stroke-miterlimit="10" d="M126.573,79.311c0,1.006-0.313,1.825-0.938,2.461
		c-0.626,0.637-1.441,0.953-2.446,0.953h-12.12c-1.005,0-1.831-0.316-2.476-0.953c-0.646-0.636-0.969-1.455-0.969-2.461V67.098
		h4.276v11.842h10.397V67.466l-13.289-16.057c-0.923-1.107-1.384-2.328-1.384-3.661v-9.751c0-1.005,0.323-1.826,0.969-2.461
		c0.646-0.636,1.471-0.954,2.476-0.954h12.12c1.004,0,1.82,0.318,2.446,0.954c0.625,0.635,0.938,1.456,0.938,2.461v11.197h-4.276
		V38.366H111.9v10.15l13.351,16.059c0.881,1.065,1.323,2.266,1.323,3.598L126.573,79.311L126.573,79.311z"/>
	<path fill="#FFFFFF" stroke="#FFFFFF" stroke-miterlimit="10" d="M131.479,34.582l26.917,44.05v4.093l-26.917-44.052V34.582z
		 M134.771,37.997c0-1.005,0.323-1.826,0.969-2.461c0.646-0.636,1.472-0.954,2.477-0.954h13.474c1.005,0,1.826,0.318,2.461,0.954
		c0.636,0.635,0.954,1.456,0.954,2.461v41.313c0,1.006-0.318,1.825-0.954,2.461c-0.635,0.637-1.456,0.953-2.461,0.953h-13.474
		c-1.004,0-1.83-0.316-2.477-0.953c-0.646-0.636-0.969-1.455-0.969-2.461V37.997z M150.828,78.939V38.366h-11.782v40.573H150.828z"
		/>
	<path fill="#FFFFFF" stroke="#FFFFFF" stroke-miterlimit="10" d="M182.897,79.311c0,1.006-0.318,1.825-0.954,2.461
		c-0.636,0.637-1.457,0.953-2.461,0.953h-12.643c-1.005,0-1.826-0.316-2.461-0.953c-0.636-0.636-0.954-1.455-0.954-2.461V37.997
		c0-1.005,0.318-1.826,0.954-2.461c0.635-0.636,1.456-0.954,2.461-0.954h12.643c1.004,0,1.825,0.318,2.461,0.954
		c0.635,0.635,0.954,1.456,0.954,2.461v11.197h-4.307V38.366H167.7v40.573h10.89V62.298h-5.137v-3.69h9.444V79.311z"/>
	<path fill="#FFFFFF" stroke="#FFFFFF" stroke-miterlimit="10" d="M209.92,79.311c0,1.006-0.313,1.825-0.938,2.461
		c-0.626,0.637-1.441,0.953-2.446,0.953h-12.12c-1.005,0-1.831-0.316-2.476-0.953c-0.646-0.636-0.969-1.455-0.969-2.461V67.098
		h4.276v11.842h10.397V67.466l-13.289-16.057c-0.923-1.107-1.384-2.328-1.384-3.661v-9.751c0-1.005,0.323-1.826,0.969-2.461
		c0.646-0.636,1.471-0.954,2.476-0.954h12.12c1.004,0,1.82,0.318,2.446,0.954c0.625,0.635,0.938,1.456,0.938,2.461v11.197h-4.276
		V38.366h-10.397v10.15l13.351,16.059c0.881,1.065,1.323,2.266,1.323,3.598L209.92,79.311L209.92,79.311z"/>
	<path fill="#FFFFFF" stroke="#FFFFFF" stroke-miterlimit="10" d="M240.831,89.714c0,1.181-0.367,2.146-1.104,2.892
		c-0.733,0.746-1.69,1.119-2.871,1.119H222.62c-1.182,0-2.15-0.373-2.91-1.119c-0.758-0.746-1.138-1.711-1.138-2.892V75.368h5.022
		v13.911h12.213V75.802l-15.608-18.862c-1.084-1.3-1.626-2.732-1.626-4.298V41.187c0-1.18,0.38-2.143,1.138-2.891
		c0.76-0.746,1.729-1.119,2.91-1.119h14.235c1.181,0,2.138,0.373,2.871,1.119c0.736,0.748,1.104,1.711,1.104,2.891v13.152h-5.022
		V41.62h-12.213v11.924l15.682,18.86c1.035,1.255,1.555,2.662,1.555,4.229L240.831,89.714L240.831,89.714z"/>
	<path fill="#FFFFFF" stroke="#FFFFFF" stroke-miterlimit="10" d="M266.368,38.366h-7.444v44.356h-4.275V38.366h-7.506v-3.784
		h19.227L266.368,38.366L266.368,38.366z"/>
	<path fill="#FFFFFF" stroke="#FFFFFF" stroke-miterlimit="10" d="M291.423,82.725h-4.245l-1.691-10.705h-9.566l-1.691,10.705
		h-4.123v-0.123l8.584-48.143h4.213L291.423,82.725z M284.934,68.234l-4.216-26.085l-4.245,26.085H284.934z"/>
	<path fill="#FFFFFF" stroke="#FFFFFF" stroke-miterlimit="10" d="M314.417,38.366h-7.444v44.356h-4.275V38.366h-7.506v-3.784
		h19.227L314.417,38.366L314.417,38.366z"/>
	<path fill="#FFFFFF" stroke="#FFFFFF" stroke-miterlimit="10" d="M324.583,82.725h-4.274V34.582h4.274V82.725z"/>
	<path fill="#FFFFFF" stroke="#FFFFFF" stroke-miterlimit="10" d="M353.575,79.311c0,1.006-0.323,1.825-0.97,2.461
		c-0.646,0.637-1.472,0.953-2.477,0.953h-13.474c-1.005,0-1.825-0.316-2.462-0.953c-0.635-0.636-0.952-1.455-0.952-2.461V37.997
		c0-1.005,0.317-1.826,0.952-2.461c0.637-0.636,1.457-0.954,2.462-0.954h13.474c1.005,0,1.83,0.318,2.477,0.954
		c0.646,0.635,0.97,1.456,0.97,2.461V79.311z M349.299,78.939V38.366h-11.781v40.573H349.299z"/>
	<path fill="#FFFFFF" stroke="#FFFFFF" stroke-miterlimit="10" d="M381.738,82.725h-2.953l-12.858-35.407v35.407h-4.028V34.582
		h3.199l12.61,34.792V34.582h4.03V82.725z"/>
	<path fill="#FFFFFF" stroke="#FFFFFF" stroke-miterlimit="10" d="M390.059,78.939h11.535V60.175h-10.336v-3.844h10.336V38.366
		h-11.352v-3.784h15.627v48.143h-15.811V78.939L390.059,78.939z"/>
	<path fill="#FFFFFF" stroke="#FFFFFF" stroke-miterlimit="10" d="M413.968,24.647h4.861v41.971l15.215-41.971h3.859v58.076h-4.861
		V40.011L417.53,82.725h-3.562V24.647z"/>
</g>
</svg>
